# xmcd CD database file
#
# Track frame offsets:
#	150
#	17637
#	30971
#	46012
#	60081
#	72579
#	85548
#	98328
#	110364
#	122759
#	137602
#	150689
#	163149
#	177697
#	191338
#	204718
#	218169
#	232552
#	244580
#	258158
#	270816
#	286537
#	307021
#	322817
#
# Disc length: 4652 seconds
#
# Revision: 1
# Processed by: cddbd v1.5.2PL0 Copyright (c) Steve Scherf et al.
# Submitted via: CDex 1.51
#
DISCID=27122a18
DTITLE=Hard Time Blues - 1927-1960 - Cd2 - Hard Time Blues - 1927-1960 - Cd2
DYEAR=2015
DGENRE=Blues
TTITLE0=President Roosevelt - Big Joe Williams
TTITLE1=Don't Take Away My P.W.A. - Jimmie Gordon
TTITLE2=W.P.A. Blues - Casey Bill Weldon
TTITLE3=Working On The Project - Peetie Wheatstraw
TTITLE4=Let's Have A New Deal - Carl Martin
TTITLE5=Welfare Store Blues - Sonny Boy Williamson
TTITLE6=Warehouse Man Blues - Champion Jack Dupree	
TTITLE7=F.D.R. Blues - Champion Jack Dupree
TTITLE8=God Bless Our New President - 	Champion Jack Dupree
TTITLE9=President's Blues - Herman Ray
TTITLE10=Eisenhower Blues - J.B. Lenoir
TTITLE11=Korea Blues - J.B. Lenoir
TTITLE12=Back To Korea Blues	 - Sunnyland Slim
TTITLE13=Crazy World - Julia Lee
TTITLE14=The World Is In A Tangle - Jimmy Rogers
TTITLE15=Hard Times Blues - Ida Cox
TTITLE16=Hard Times - Charles Brown
TTITLE17=No Shoes - Eddie Kirkland
TTITLE18=Lonesome Cabin Blues - Baby Roy Warren
TTITLE19=Poor Boy Blues - Brownie Mcghee
TTITLE20=Pawnshop Blues - Brownie Mcghee
TTITLE21=The Alabama Bus Pt.1&2 - Brother Will Hairston
TTITLE22=Democrat Man - John Lee Hooker
TTITLE23=The Big Race - Memphis Slim
EXTD=YEAR: 2015
EXTT0=
EXTT1=
EXTT2=
EXTT3=
EXTT4=
EXTT5=
EXTT6=
EXTT7=
EXTT8=
EXTT9=
EXTT10=
EXTT11=
EXTT12=
EXTT13=
EXTT14=
EXTT15=
EXTT16=
EXTT17=
EXTT18=
EXTT19=
EXTT20=
EXTT21=
EXTT22=
EXTT23=
PLAYORDER=
